<svg id="calendar-week-duotone" xmlns="http://www.w3.org/2000/svg" width="12.598" height="14.397" viewBox="0 0 12.598 14.397">
  <path id="Path_268" data-name="Path 268" d="M0,5.4v7.649A1.35,1.35,0,0,0,1.35,14.4h9.9a1.35,1.35,0,0,0,1.35-1.35V5.4ZM10.8,9.448a.45.45,0,0,1-.45.45H2.25a.45.45,0,0,1-.45-.45v-1.8a.45.45,0,0,1,.45-.45h8.1a.45.45,0,0,1,.45.45ZM8.548,3.6h.9a.45.45,0,0,0,.45-.45V.45A.45.45,0,0,0,9.448,0h-.9A.45.45,0,0,0,8.1.45v2.7A.45.45,0,0,0,8.548,3.6Zm-5.4,0h.9a.45.45,0,0,0,.45-.45V.45A.45.45,0,0,0,4.049,0h-.9A.45.45,0,0,0,2.7.45v2.7A.45.45,0,0,0,3.149,3.6Z" fill="#00a0e9" opacity="0.4"/>
  <path id="Path_269" data-name="Path 269" d="M12.6,65.35V67.6H0V65.35A1.35,1.35,0,0,1,1.35,64H2.7v1.35a.45.45,0,0,0,.45.45h.9a.45.45,0,0,0,.45-.45V64H8.1v1.35a.45.45,0,0,0,.45.45h.9a.45.45,0,0,0,.45-.45V64h1.35A1.35,1.35,0,0,1,12.6,65.35Z" transform="translate(0 -62.2)" fill="#00a0e9"/>
</svg>
