<svg xmlns="http://www.w3.org/2000/svg" width="16.168" height="16.168" viewBox="0 0 16.168 16.168">
  <g id="history-duotone" transform="translate(-8 -8)">
    <path id="Path_264" data-name="Path 264" d="M12.358,20.785a6,6,0,1,0-.383-9.072l1.655,1.655a.521.521,0,0,1-.369.89H8.522A.522.522,0,0,1,8,13.737V9a.521.521,0,0,1,.89-.369l1.61,1.61a8.084,8.084,0,1,1,.511,12.139.782.782,0,0,1-.06-1.161l.367-.367A.782.782,0,0,1,12.358,20.785Z" transform="translate(0 0)" fill="#a8a8a8" opacity="0.4"/>
    <path id="Path_265" data-name="Path 265" d="M226.086,128.782v3.4l1.327,1.032a.782.782,0,0,1,.137,1.1l-.32.411a.782.782,0,0,1-1.1.137L224,133.2v-4.422a.782.782,0,0,1,.782-.782h.522A.782.782,0,0,1,226.086,128.782Z" transform="translate(-208.959 -116.089)" fill="#a8a8a8"/>
  </g>
</svg>
